<svg xmlns="http://www.w3.org/2000/svg" viewBox="0 0 800 390" width="800" height="390">
  <defs>
    <linearGradient id="featBg" x1="0%" y1="0%" x2="100%" y2="100%">
      <stop offset="0%" style="stop-color:#0d1117;stop-opacity:1" />
      <stop offset="100%" style="stop-color:#161b22;stop-opacity:1" />
    </linearGradient>
    <linearGradient id="featAccent" x1="0%" y1="0%" x2="100%" y2="0%">
      <stop offset="0%" style="stop-color:#fb8500;stop-opacity:1" />
      <stop offset="100%" style="stop-color:#e07700;stop-opacity:1" />
    </linearGradient>
  </defs>
  <rect width="800" height="390" fill="url(#featBg)" rx="12"/>
  <text x="400" y="38" font-family="Segoe UI,Arial,sans-serif" font-size="20" fill="#ffffff" text-anchor="middle" font-weight="bold">Key Features</text>
  <rect x="300" y="48" width="200" height="3" fill="url(#featAccent)" rx="2"/>
  
  <rect x="30" y="65" width="235" height="130" rx="10" fill="#161b22" stroke="#fb8500" stroke-width="1.5"/>
  <text x="50" y="95" font-family="Segoe UI,Arial,sans-serif" font-size="20">⚡</text>
  <text x="78" y="97" font-family="Segoe UI,Arial,sans-serif" font-size="13" fill="#ffffff" font-weight="bold">Muscle Group Database</text>
  <text x="45" y="123" font-family="Segoe UI,Arial,sans-serif" font-size="11" fill="#8b949e">7 groups with muscles, descriptions, a</text>
  <text x="45" y="140" font-family="Segoe UI,Arial,sans-serif" font-size="11" fill="#8b949e">nd exercise lists: chest, back, legs, </text>
  <text x="45" y="157" font-family="Segoe UI,Arial,sans-serif" font-size="11" fill="#8b949e">shoulders, arms, core, full body</text>
  <rect x="30" y="185" width="235" height="10" rx="0" ry="5" fill="#fb8500" opacity="0.15"/>
  <rect x="285" y="65" width="235" height="130" rx="10" fill="#161b22" stroke="#fb8500" stroke-width="1.5"/>
  <text x="305" y="95" font-family="Segoe UI,Arial,sans-serif" font-size="20">🔍</text>
  <text x="333" y="97" font-family="Segoe UI,Arial,sans-serif" font-size="13" fill="#ffffff" font-weight="bold">Progression Paths</text>
  <text x="300" y="123" font-family="Segoe UI,Arial,sans-serif" font-size="11" fill="#8b949e">Step-by-step progressions for push-ups</text>
  <text x="300" y="140" font-family="Segoe UI,Arial,sans-serif" font-size="11" fill="#8b949e">, squats, pull-ups, planks, and deadli</text>
  <text x="300" y="157" font-family="Segoe UI,Arial,sans-serif" font-size="11" fill="#8b949e">fts</text>
  <rect x="285" y="185" width="235" height="10" rx="0" ry="5" fill="#fb8500" opacity="0.15"/>
  <rect x="540" y="65" width="235" height="130" rx="10" fill="#161b22" stroke="#fb8500" stroke-width="1.5"/>
  <text x="560" y="95" font-family="Segoe UI,Arial,sans-serif" font-size="20">📊</text>
  <text x="588" y="97" font-family="Segoe UI,Arial,sans-serif" font-size="13" fill="#ffffff" font-weight="bold">Warm-Up Routines</text>
  <text x="555" y="123" font-family="Segoe UI,Arial,sans-serif" font-size="11" fill="#8b949e">4+ warm-up exercises for each muscle g</text>
  <text x="555" y="140" font-family="Segoe UI,Arial,sans-serif" font-size="11" fill="#8b949e">roup to prevent injury</text>
  <text x="555" y="157" font-family="Segoe UI,Arial,sans-serif" font-size="11" fill="#8b949e"></text>
  <rect x="540" y="185" width="235" height="10" rx="0" ry="5" fill="#fb8500" opacity="0.15"/>
  <rect x="30" y="220" width="235" height="130" rx="10" fill="#161b22" stroke="#fb8500" stroke-width="1.5"/>
  <text x="50" y="250" font-family="Segoe UI,Arial,sans-serif" font-size="20">🔄</text>
  <text x="78" y="252" font-family="Segoe UI,Arial,sans-serif" font-size="13" fill="#ffffff" font-weight="bold">Cool-Down Stretches</text>
  <text x="45" y="278" font-family="Segoe UI,Arial,sans-serif" font-size="11" fill="#8b949e">Recovery stretches and mobility exerci</text>
  <text x="45" y="295" font-family="Segoe UI,Arial,sans-serif" font-size="11" fill="#8b949e">ses organized by muscle group</text>
  <text x="45" y="312" font-family="Segoe UI,Arial,sans-serif" font-size="11" fill="#8b949e"></text>
  <rect x="30" y="340" width="235" height="10" rx="0" ry="5" fill="#fb8500" opacity="0.15"/>
  <rect x="285" y="220" width="235" height="130" rx="10" fill="#161b22" stroke="#fb8500" stroke-width="1.5"/>
  <text x="305" y="250" font-family="Segoe UI,Arial,sans-serif" font-size="20">🛡️</text>
  <text x="333" y="252" font-family="Segoe UI,Arial,sans-serif" font-size="13" fill="#ffffff" font-weight="bold">3 Skill Levels</text>
  <text x="300" y="278" font-family="Segoe UI,Arial,sans-serif" font-size="11" fill="#8b949e">Form guides tailored to beginner, inte</text>
  <text x="300" y="295" font-family="Segoe UI,Arial,sans-serif" font-size="11" fill="#8b949e">rmediate, and advanced athletes</text>
  <text x="300" y="312" font-family="Segoe UI,Arial,sans-serif" font-size="11" fill="#8b949e"></text>
  <rect x="285" y="340" width="235" height="10" rx="0" ry="5" fill="#fb8500" opacity="0.15"/>
  <rect x="540" y="220" width="235" height="130" rx="10" fill="#161b22" stroke="#fb8500" stroke-width="1.5"/>
  <text x="560" y="250" font-family="Segoe UI,Arial,sans-serif" font-size="20">📋</text>
  <text x="588" y="252" font-family="Segoe UI,Arial,sans-serif" font-size="13" fill="#ffffff" font-weight="bold">Weekly Workout Plans</text>
  <text x="555" y="278" font-family="Segoe UI,Arial,sans-serif" font-size="11" fill="#8b949e">AI-generated routines based on your fi</text>
  <text x="555" y="295" font-family="Segoe UI,Arial,sans-serif" font-size="11" fill="#8b949e">tness goal and experience level</text>
  <text x="555" y="312" font-family="Segoe UI,Arial,sans-serif" font-size="11" fill="#8b949e"></text>
  <rect x="540" y="340" width="235" height="10" rx="0" ry="5" fill="#fb8500" opacity="0.15"/>
</svg>